<mxfile host="app.diagrams.net" modified="2023-11-15T00:44:34.176Z" agent="Mozilla/5.0 (Macintosh; Intel Mac OS X 10_15_7) AppleWebKit/537.36 (KHTML, like Gecko) Chrome/119.0.0.0 Safari/537.36" etag="YVi8WLz84KM7rBP1KIUh" version="22.1.0" type="github">
  <diagram name="Page-1" id="OxHC0WvrQpZg26OiPj_z">
    <mxGraphModel dx="2067" dy="1064" grid="1" gridSize="10" guides="1" tooltips="1" connect="1" arrows="1" fold="1" page="1" pageScale="1" pageWidth="827" pageHeight="1169" math="0" shadow="0">
      <root>
        <mxCell id="0" />
        <mxCell id="1" parent="0" />
        <mxCell id="01q-ujqo5NviYlfDltNa-1" value="&amp;nbsp; Interactive Lesson" style="swimlane;whiteSpace=wrap;html=1;align=left;shadow=1;" vertex="1" parent="1">
          <mxGeometry x="-70" y="50" width="920" height="680" as="geometry" />
        </mxCell>
        <mxCell id="01q-ujqo5NviYlfDltNa-2" value="&amp;nbsp; Activity" style="swimlane;whiteSpace=wrap;html=1;align=left;strokeColor=#2200FF;shadow=1;" vertex="1" parent="01q-ujqo5NviYlfDltNa-1">
          <mxGeometry x="20" y="40" width="900" height="500" as="geometry" />
        </mxCell>
        <mxCell id="01q-ujqo5NviYlfDltNa-4" value="&amp;nbsp; Section (Slide)" style="swimlane;whiteSpace=wrap;html=1;align=left;shadow=1;" vertex="1" parent="01q-ujqo5NviYlfDltNa-2">
          <mxGeometry x="20" y="40" width="880" height="300" as="geometry" />
        </mxCell>
        <mxCell id="01q-ujqo5NviYlfDltNa-6" value="&amp;nbsp; Component" style="swimlane;whiteSpace=wrap;html=1;align=left;shadow=1;" vertex="1" parent="01q-ujqo5NviYlfDltNa-4">
          <mxGeometry x="20" y="40" width="410" height="240" as="geometry" />
        </mxCell>
        <mxCell id="01q-ujqo5NviYlfDltNa-9" value="&amp;nbsp; Component" style="swimlane;whiteSpace=wrap;html=1;align=left;shadow=1;" vertex="1" parent="01q-ujqo5NviYlfDltNa-4">
          <mxGeometry x="450" y="40" width="407" height="240" as="geometry" />
        </mxCell>
        <mxCell id="01q-ujqo5NviYlfDltNa-5" value="&amp;nbsp;Sub&amp;nbsp; Activity" style="swimlane;whiteSpace=wrap;html=1;align=left;shadow=1;" vertex="1" parent="01q-ujqo5NviYlfDltNa-2">
          <mxGeometry x="20" y="360" width="860" height="120" as="geometry" />
        </mxCell>
        <mxCell id="01q-ujqo5NviYlfDltNa-3" value="&amp;nbsp; Activity" style="swimlane;whiteSpace=wrap;html=1;align=left;" vertex="1" parent="01q-ujqo5NviYlfDltNa-1">
          <mxGeometry x="20" y="560" width="800" height="100" as="geometry" />
        </mxCell>
      </root>
    </mxGraphModel>
  </diagram>
</mxfile>
